<svg xmlns="http://www.w3.org/2000/svg" viewBox="0 0 24 24"><path fill="#A22846" d="M14.847 0c-.276.01-.522.275-.51.557.04.355.31.668.66.752a3.99 3.99 0 0 0-.42.107c-.546-1.183-2.082-1.226-3.143-.475-.532-.165-1.067-.115-1.61.064C9.22.244 7.706.272 7.146 1.453c-1.058.054-1.78.395-2.224.928-1.245-.155-1.978.418-2.323 1.073-.928.15-1.61.484-2.013 1.046-.974 1.355-.04 3.563.234 4.336-.13.717-.22 1.502-.22 2.164 0 .628.097 1.215.25 1.788.027 5.347 4.346 9.638 9.685 9.638.005 0 .01-.001.014-.002.005 0 .01.002.014.002a9.665 9.665 0 0 0 9.687-9.638c.156-.573.252-1.16.252-1.788 0-.662-.092-1.447-.222-2.164.275-.773 1.21-2.98.236-4.336-.405-.562-1.087-.896-2.014-1.046-.345-.655-1.077-1.228-2.323-1.073-.443-.533-1.165-.873-2.224-.928-.56-1.18-2.072-1.21-2.677-.448-.534-.176-1.067-.225-1.595-.062-.5-.354-1.087-.518-1.643-.452a.97.97 0 0 1 .226-.027c.404-.034.785-.395.706-.798a.532.532 0 0 0-.554-.418z"/></svg>
