<svg xmlns="http://www.w3.org/2000/svg" width="1em" height="1em" viewBox="0 0 128 128"><path fill="#ff3e00" d="M110.43 16.936C98.553-.076 75.09-5.118 58.13 5.696l-29.792 19a34.2 34.2 0 0 0-15.48 22.897a35.9 35.9 0 0 0 3.542 23.457a34 34 0 0 0-5.086 12.847a36.1 36.1 0 0 0 6.176 27.16c11.877 17.012 35.34 22.054 52.3 11.24l29.792-19a34.2 34.2 0 0 0 15.48-22.897a35.9 35.9 0 0 0-3.542-23.457a34 34 0 0 0 5.086-12.847a36.1 36.1 0 0 0-6.176-27.16"/><path fill="#fff" d="M55.219 112.662a30.4 30.4 0 0 1-32.648-11.784a26.07 26.07 0 0 1-4.462-19.66a25 25 0 0 1 .96-3.873l.746-2.29l2.004 1.47a38.4 38.4 0 0 0 11.632 5.97l1.106.333l-.102 1.104a7.98 7.98 0 0 0 1.466 5.371a9.28 9.28 0 0 0 9.968 3.596a8.6 8.6 0 0 0 2.384-.957l29.79-19.03a7.4 7.4 0 0 0 3.353-5.238a7.94 7.94 0 0 0-1.358-5.989a9.28 9.28 0 0 0-9.968-3.596a8.5 8.5 0 0 0-2.386.958l-11.384 7.27a27.6 27.6 0 0 1-7.82 3.14a30.4 30.4 0 0 1-32.648-11.783a26.07 26.07 0 0 1-4.462-19.66a24.3 24.3 0 0 1 10.994-17.2l29.792-19.03a27.5 27.5 0 0 1 7.82-3.14a30.4 30.4 0 0 1 32.648 11.784a26.07 26.07 0 0 1 4.462 19.66a25 25 0 0 1-.96 3.873l-.746 2.29l-2.004-1.47a38.4 38.4 0 0 0-11.632-5.97l-1.106-.333l.102-1.104a7.98 7.98 0 0 0-1.466-5.371a9.28 9.28 0 0 0-9.968-3.596a8.6 8.6 0 0 0-2.384.957l-29.79 19.03a7.4 7.4 0 0 0-3.353 5.238a7.94 7.94 0 0 0 1.358 5.989a9.28 9.28 0 0 0 9.968 3.596a8.5 8.5 0 0 0 2.386-.958l11.384-7.27a27.6 27.6 0 0 1 7.82-3.14a30.4 30.4 0 0 1 32.648 11.783a26.07 26.07 0 0 1 4.462 19.66a24.3 24.3 0 0 1-10.994 17.2l-29.792 19.03a27.5 27.5 0 0 1-7.82 3.14"/></svg>
